<?xml version="1.0" encoding="UTF-8"?>
<svg xmlns="http://www.w3.org/2000/svg" width="300" height="90" viewBox="0 0 300 90">
<style>
  .cell { font-family: "JetBrains Mono", "Fira Code", "Consolas", monospace; font-size: 16px; }
  .bg { fill: #1e1e1e; }
  .fg { fill: #d4d4d4; }
  .bold { font-weight: bold; }
  .italic { font-style: italic; }
  .underline { text-decoration: underline; }
</style>
<rect width="100%" height="100%" class="bg"/><text x="0" y="18">─</text><text x="10" y="18">─</text><text x="20" y="18">─</text><text x="30" y="18">─</text><text x="40" y="18">─</text><text x="50" y="18">─</text><text x="60" y="18">─</text><text x="70" y="18">─</text><text x="80" y="18">─</text><text x="90" y="18">─</text><text x="100" y="18">─</text><text x="110" y="18">─</text><text x="120" y="18">─</text><text x="130" y="18">─</text><text x="140" y="18">─</text><text x="150" y="18">─</text><text x="160" y="18">─</text><text x="170" y="18">─</text><text x="180" y="18">─</text><text x="190" y="18">─</text><text x="200" y="18">─</text><text x="210" y="18">─</text><text x="220" y="18">─</text><text x="230" y="18">─</text><text x="240" y="18">─</text><text x="250" y="18">─</text><text x="260" y="18">─</text><text x="270" y="18">─</text><text x="280" y="18">─</text><text x="290" y="18">─</text><text x="0" y="36">│</text><text x="290" y="36">│</text><text x="0" y="54">│</text><text x="120" y="54" class="bold">B</text><text x="130" y="54" class="bold">O</text><text x="140" y="54" class="bold">X</text><text x="290" y="54">│</text><text x="0" y="72">│</text><text x="290" y="72">│</text><text x="0" y="90">─</text><text x="10" y="90">─</text><text x="20" y="90">─</text><text x="30" y="90">─</text><text x="40" y="90">─</text><text x="50" y="90">─</text><text x="60" y="90">─</text><text x="70" y="90">─</text><text x="80" y="90">─</text><text x="90" y="90">─</text><text x="100" y="90">─</text><text x="110" y="90">─</text><text x="120" y="90">─</text><text x="130" y="90">─</text><text x="140" y="90">─</text><text x="150" y="90">─</text><text x="160" y="90">─</text><text x="170" y="90">─</text><text x="180" y="90">─</text><text x="190" y="90">─</text><text x="200" y="90">─</text><text x="210" y="90">─</text><text x="220" y="90">─</text><text x="230" y="90">─</text><text x="240" y="90">─</text><text x="250" y="90">─</text><text x="260" y="90">─</text><text x="270" y="90">─</text><text x="280" y="90">─</text><text x="290" y="90">─</text>
</svg>